<svg width="120" height="120" viewBox="0 0 120 120" fill="none" xmlns="http://www.w3.org/2000/svg">
<g clip-path="url(#clip0_5_37)">
<path d="M0.956108 108.1C1.86976 107.478 2.91798 107.024 3.67581 106.219C16.8211 92.2936 32.0769 82.0193 48.6643 74.4072C56.2002 70.9479 59.9893 65.5916 61.165 56.6085C63.2544 40.6271 64.161 24.6935 62.2912 8.63241C62.2133 7.9788 62.277 7.19767 61.9866 6.68754C60.7967 4.58325 59.876 1.72174 58.1337 0.717426C55.5981 -0.757167 53.7708 1.98478 52.5031 4.22457C43.8411 19.5524 34.8958 34.7048 26.7579 50.3833C18.1384 66.9864 10.2909 84.0917 2.17431 101.022C1.22525 102.998 0.708217 105.23 -0.00712248 107.342C0.311593 107.598 0.630313 107.853 0.949029 108.1H0.956108Z" fill="white"/>
<path d="M115.042 110.897C119.086 110.881 120.935 107.964 119.54 103.963C117.606 98.4228 115.602 92.8353 112.953 87.7101C98.5681 59.8762 83.9709 32.1698 69.4445 4.43147C68.97 3.51483 68.5309 2.50254 67.8509 1.82503C67.0648 1.04389 66.0236 0.597528 65.0958 0.00769043C64.9825 1.09172 64.593 2.24748 64.8054 3.23585C69.232 24.191 68.9629 45.3056 66.5619 66.4839C65.9599 71.8403 66.7815 76.4474 70.429 80.2415C82.6748 92.9549 96.422 102.998 111.919 109.957C113.109 110.491 114.398 110.714 115.042 110.905V110.897Z" fill="white"/>
<path d="M116.14 115.991C115.283 115.505 114.469 114.867 113.562 114.564C96.4151 108.761 80.8901 99.284 66.9232 86.9372C59.8831 80.7121 53.3105 79.907 45.3639 83.5815C32.8986 89.3524 20.8723 95.9363 10.0431 105.071C9.75979 105.31 9.46232 105.533 9.20027 105.796C6.94801 108.052 3.74669 109.957 4.74533 114.062C5.78647 118.334 9.46232 117.84 12.4228 118.135C40.4344 120.949 68.4814 119.96 96.5284 119.139C101.947 118.98 107.358 118.573 112.769 118.199C113.859 118.119 114.922 117.649 115.998 117.354C116.048 116.899 116.098 116.445 116.147 115.991H116.14Z" fill="white"/>
</g>
<defs>
<clipPath id="clip0_5_37">
<rect width="120" height="120" fill="white" transform="matrix(-1 0 0 1 120 0)"/>
</clipPath>
</defs>
</svg>
